# xmcd
# Track frame offsets:
# 150
# 12359
# 23097
# 35799
# 48164
# 62313
# 76301
# 90674
# 102918
# 115353
# 132028
# 145364
# 164183
# 181765
# 196699
#
# Disc length: 2804 seconds
# Revision: 0
# Processed by: cddbd v1.5.2PL0 Copyright (c) Steve Scherf et al.
# Submitted via: VisiTrax 2.9.10.228 - For more info visit www.synapsa.com
#
DISCID=c00af20f
DTITLE=Billy Keeble - Billy Keeble sings Wynn Stewart
DYEAR=1900
DGENRE=
TTITLE0=Half of this, half of that
TTITLE1=Playboy
TTITLE2=Yours forever
TTITLE3=I bought this shoes that just walked out on me
TTITLE4=Unfaithful arms
TTITLE5=You don't care what happens to me
TTITLE6=Just now thought of you
TTITLE7=After the storm
TTITLE8=Falling for you
TTITLE9=Would you want the world to end
TTITLE10=Wishful thinking
TTITLE11=It always rains on me
TTITLE12=You can't take it with you
TTITLE13=Do it to someone you love
TTITLE14=When
EXTD=
EXTT0=
EXTT1=
EXTT2=
EXTT3=
EXTT4=
EXTT5=
EXTT6=
EXTT7=
EXTT8=
EXTT9=
EXTT10=
EXTT11=
EXTT12=
EXTT13=
EXTT14=
PLAYORDER=
